#!OML:ASF E:\emotionWalksFemale\Project 1\Capture day 1\Session 1\Female1.ASF
:FULLY-SPECIFIED
:DEGREES
487
root 7.21991 14.7715 39.7331 171.693 -2.00659 175.615
lowerback 1.22892 -2.11395 -0.249166
upperback -3.61216 -2.94648 -0.0961221
thorax -4.40233 -1.50406 0.191921
lowerneck 0.48221 1.68714 -3.1115
upperneck 21.6406 4.79379 -1.11995
head 6.47342 2.83543 0.516235
rclavicle -1.96797e-014 -7.15625e-015
rhumerus -59.3651 9.70716 -71.0716
rradius 29.6776
rwrist 23.7853
rhand 165.701 -69.393
rfingers 7.12502
rthumb -168.16 -39.7478
lclavicle -1.96797e-014 -7.15625e-015
lhumerus -43.0516 28.5148 56.6406
lradius 25.4821
lwrist -54.6907
lhand 24.2367 -13.7728
lfingers 7.12502
lthumb 48.4595 8.2227
rfemur -34.3988 32.6573 8.12116
rtibia 27.0056
rfoot -61.4199 -21.7311
rtoes 68.1397
lfemur 21.7383 -5.52544 -37.2421
ltibia 4.56421
lfoot -21.3643 15.6886
ltoes -26.8439
488
root 7.22093 14.7627 39.6734 171.815 -1.82955 175.306
lowerback 1.1003 -2.31198 -0.549836
upperback -3.56854 -3.22244 -0.170286
thorax -4.27129 -1.63293 0.289254
lowerneck 0.487914 1.93716 -2.54794
upperneck 21.4928 5.16335 -1.58631
head 6.44611 3.01395 0.289332
rclavicle -2.00773e-014 -1.35174e-014
rhumerus -59.5003 9.55259 -70.3743
rradius 29.7708
rwrist 24.242
rhand 166.062 -69.3623
rfingers 7.12502
rthumb -167.811 -39.7374
lclavicle -2.00773e-014 -1.35174e-014
lhumerus -42.1877 24.1919 59.7997
lradius 27.6082
lwrist -49.2273
lhand 23.029 -11.5479
lfingers 7.12502
lthumb 47.3457 10.9645
rfemur -35.7956 35.2848 6.11116
rtibia 27.4936
rfoot -64.8049 -18.8561
rtoes 68.4867
lfemur 24.0983 -5.41835 -37.4942
ltibia -7.4743e-014
lfoot -19.2062 15.2852
ltoes -25.6866
489
root 7.22313 14.751 39.6127 171.633 -1.74823 174.95
lowerback 1.28301 -2.55748 -0.928224
upperback -3.45752 -3.55904 -0.263754
thorax -4.24074 -1.78592 0.424897
lowerneck 0.528033 2.23764 -2.21185
upperneck 21.4116 5.57702 -1.78032
head 6.42536 3.21973 0.190234
rclavicle -1.45113e-014 -3.97569e-015
rhumerus -59.5894 9.60464 -69.934
rradius 29.9869
rwrist 24.0555
rhand 166.206 -69.0998
rfingers 7.12502
rthumb -167.672 -39.4832
lclavicle -1.45113e-014 -3.97569e-015
lhumerus -41.7535 23.0326 60.7335
lradius 28.6018
lwrist -46.8547
lhand 21.908 -10.4115
lfingers 7.12502
lthumb 46.3082 12.5536
rfemur -36.5238 37.2066 4.69439
rtibia 28.0737
rfoot -66.8237 -17.8216
rtoes 68.4061
lfemur 24.521 -5.28168 -37.9029
ltibia 3.65764e-014
lfoot -19.4789 15.2851
ltoes -24.9055
490
root 7.22088 14.7419 39.5398 171.449 -1.66584 174.434
lowerback 1.36791 -2.78991 -1.41537
upperback -3.34928 -3.88678 -0.420437
thorax -4.15214 -1.93443 0.550653
lowerneck 0.51812 2.5735 -1.95561
upperneck 21.314 5.99106 -1.76722
head 6.40131 3.42868 0.170534
rclavicle -1.82882e-014 1.43125e-014
rhumerus -59.5779 9.54368 -69.3756
rradius 29.9958
rwrist 23.8701
rhand 166.144 -69.0572
rfingers 7.12502
rthumb -167.732 -39.437
lclavicle -1.82882e-014 1.43125e-014
lhumerus -41.3673 23.1772 60.7717
lradius 28.7325
lwrist -46.6381
lhand 18.7804 -10.1554
lfingers 7.12502
lthumb 43.3973 13.9486
rfemur -36.2383 36.4772 4.55818
rtibia 28.2657
rfoot -65.7776 -19.1213
rtoes 68.0642
lfemur 24.9881 -5.10048 -38.5121
ltibia -1.08139e-013
lfoot -19.7932 15.3567
ltoes -24.4704
491
root 7.21997 14.7444 39.4719 171.584 -1.40297 174.391
lowerback 1.23464 -2.99884 -1.49757
upperback -3.36171 -4.16657 -0.373164
thorax -4.07576 -2.0719 0.649982
lowerneck 0.663237 2.85198 -1.5197
upperneck 21.0663 6.38624 -2.18035
head 6.32346 3.61668 -0.0212452
rclavicle 1.98785e-016 2.14687e-014
rhumerus -59.4125 9.17875 -68.3802
rradius 29.834
rwrist 24.1808
rhand 166.307 -69.1859
rfingers 7.12502
rthumb -167.575 -39.5752
lclavicle 1.98785e-016 2.14687e-014
lhumerus -41.0825 23.6751 60.6917
lradius 28.624
lwrist -47.3997
lhand 14.0477 -10.4281
lfingers 7.12502
lthumb 38.9545 15.1049
rfemur -36.374 34.7718 5.20961
rtibia 28.9292
rfoot -63.0877 -22.6911
rtoes 67.3032
lfemur 25.0702 -4.93257 -38.5654
ltibia 4.92986e-014
lfoot -19.7772 15.6152
ltoes -24.7855
492
root 7.22789 14.764 39.4362 172.423 -0.858671 175.733
lowerback 0.917208 -3.17723 -0.234406
upperback -3.64902 -4.36566 0.141247
thorax -4.24339 -2.21039 0.479338
lowerneck 0.723111 3.12652 -1.28732
upperneck 20.9731 6.80641 -2.52683
head 6.30592 3.81117 -0.150721
rclavicle -8.60738e-014 -7.95139e-016
rhumerus -59.2229 8.67344 -67.2498
rradius 29.7072
rwrist 24.5204
rhand 166.404 -69.3322
rfingers 7.12502
rthumb -167.481 -39.7272
lclavicle -8.60738e-014 -7.95139e-016
lhumerus -40.8453 24.2085 60.6624
lradius 28.4097
lwrist -48.7423
lhand 8.39435 -10.8672
lfingers 7.12502
lthumb 33.6019 16.004
rfemur -37.588 34.4149 6.12574
rtibia 28.8955
rfoot -62.211 -25.8093
rtoes 66.5162
lfemur 24.3193 -4.97239 -36.9665
ltibia -8.26944e-014
lfoot -19.5507 15.6431
ltoes -23.9884
